<?xml version="1.0" standalone="no"?>
<!DOCTYPE svg PUBLIC "-//W3C//DTD SVG 20010904//EN"
 "http://www.w3.org/TR/2001/REC-SVG-20010904/DTD/svg10.dtd">
<svg version="1.0" xmlns="http://www.w3.org/2000/svg"
 width="88.000000pt" height="88.000000pt" viewBox="0 0 88.000000 88.000000"
 preserveAspectRatio="xMidYMid meet">
<metadata>
Created by potrace 1.14, written by Peter Selinger 2001-2017
</metadata>
<g transform="translate(0.000000,88.000000) scale(0.100000,-0.100000)"
fill="#000000" stroke="none">
<path d="M468 729 c-42 -21 -46 -30 -23 -49 21 -18 19 -33 -11 -60 -17 -17
-23 -31 -20 -46 5 -17 -3 -29 -34 -54 -50 -40 -94 -102 -111 -158 -14 -50 -68
-102 -104 -102 -28 0 -55 -9 -55 -19 0 -5 19 -14 43 -21 23 -6 69 -25 103 -40
59 -26 61 -27 83 -9 17 14 26 16 40 7 14 -8 41 -2 124 27 59 21 107 41 107 45
0 4 -27 10 -60 12 -52 4 -66 9 -92 35 -37 37 -30 53 23 53 22 0 56 8 77 19 20
10 54 21 74 25 22 4 42 15 48 26 18 33 31 22 28 -22 -3 -40 -1 -44 32 -60 38
-19 44 -16 54 23 7 31 -17 47 -41 28 -7 -7 -15 -10 -17 -8 -1 2 -8 41 -14 87
-6 45 -17 93 -24 105 -7 12 -11 25 -10 29 2 7 -42 44 -61 51 -6 2 -11 21 -11
43 0 21 -4 42 -10 46 -21 15 -101 7 -138 -13z m69 -175 c-3 -3 -12 -4 -19 -1
-8 3 -5 6 6 6 11 1 17 -2 13 -5z m-207 -281 c0 -7 -5 -13 -12 -13 -17 0 -48
31 -48 47 0 11 6 11 30 -4 17 -9 30 -23 30 -30z m68 -23 c-19 -45 -22 -48 -34
-33 -11 15 -9 20 9 30 18 10 19 12 5 13 -25 0 -22 19 5 30 36 14 37 12 15 -40z
m-67 -13 c-1 -12 -15 -9 -19 4 -3 6 1 10 8 8 6 -3 11 -8 11 -12z"/>
</g>
</svg>
