<?xml version="1.0" standalone="no"?>
<!DOCTYPE svg PUBLIC "-//W3C//DTD SVG 20010904//EN"
 "http://www.w3.org/TR/2001/REC-SVG-20010904/DTD/svg10.dtd">
<svg version="1.0" xmlns="http://www.w3.org/2000/svg"
 width="114.000000pt" height="40.000000pt" viewBox="0 0 1280.000000 1048.000000"
 preserveAspectRatio="xMidYMid meet">
<metadata>
Created by potrace 1.15, written by Peter Selinger 2001-2017
</metadata>
<g transform="translate(0.000000,1048.000000) scale(0.100000,-0.100000)"
fill="#000000" stroke="none">
<path d="M10365 10460 c-168 -33 -366 -115 -477 -196 -65 -48 -154 -147 -182
-202 -13 -26 -39 -108 -57 -182 -42 -168 -47 -291 -13 -337 38 -51 80 -68 169
-68 102 0 145 20 245 109 183 166 357 220 526 164 184 -60 426 -268 536 -459
94 -163 120 -286 122 -564 1 -184 -2 -215 -32 -390 -90 -518 -185 -816 -384
-1208 -52 -101 -74 -133 -152 -215 -137 -143 -396 -357 -481 -397 -140 -65
-270 -72 -508 -25 -350 68 -611 97 -972 106 -308 8 -548 -5 -1121 -61 -714
-71 -681 -66 -2239 -294 -225 -33 -446 -65 -490 -71 -44 -7 -117 -27 -161 -45
-113 -46 -181 -58 -314 -57 -88 0 -152 8 -270 32 -256 52 -396 88 -470 119
-77 33 -432 271 -653 440 -172 130 -254 180 -393 237 -274 113 -417 219 -620
456 -135 158 -243 275 -278 302 l-33 25 -37 -50 c-29 -40 -42 -49 -66 -49 -17
0 -39 -9 -51 -21 -22 -22 -22 -26 -14 -208 9 -231 8 -264 -10 -307 -21 -50
-59 -81 -160 -128 -234 -110 -334 -210 -484 -486 -84 -154 -136 -224 -244
-333 -52 -52 -105 -116 -121 -146 -45 -85 -41 -113 43 -276 128 -249 184 -328
272 -385 83 -54 138 -65 273 -55 61 5 141 8 178 8 129 -2 254 -55 362 -154 35
-33 71 -59 79 -59 29 0 98 -61 147 -132 59 -84 166 -299 235 -473 l48 -120
-12 -315 c-7 -173 -19 -434 -28 -580 -8 -146 -16 -364 -17 -485 l-1 -220 -83
-205 c-46 -113 -101 -238 -122 -278 -69 -129 -287 -442 -483 -694 -168 -216
-674 -736 -774 -795 -46 -27 -54 -28 -178 -29 -113 0 -136 -3 -172 -22 -23
-12 -66 -31 -95 -43 -67 -26 -101 -58 -128 -122 -37 -85 -18 -177 49 -244 25
-25 44 -32 133 -47 132 -23 377 -32 493 -17 101 12 192 51 285 119 141 105
167 120 244 141 43 12 92 29 109 38 18 9 118 100 222 202 233 228 345 319 590
479 296 194 443 308 595 462 74 75 162 156 195 180 98 71 349 327 378 386 46
92 170 197 358 304 58 33 127 78 152 100 60 53 93 59 141 26 48 -32 96 -46
163 -46 67 0 376 -36 478 -56 190 -36 235 -80 417 -405 329 -589 347 -625 477
-947 154 -383 171 -441 134 -474 -10 -9 -51 -27 -92 -41 -94 -33 -146 -69
-179 -126 -37 -62 -35 -143 6 -264 16 -48 31 -89 34 -92 12 -13 301 -48 433
-52 169 -6 280 7 319 38 46 36 61 106 61 289 0 331 -43 723 -119 1092 -70 336
-206 1089 -206 1140 0 24 6 27 107 52 58 15 126 36 150 47 85 39 362 48 863
29 374 -15 516 -26 750 -59 317 -45 335 -46 429 -22 96 25 121 26 188 6 110
-33 173 -99 218 -230 63 -182 107 -257 239 -410 157 -181 447 -581 537 -740
53 -94 49 -182 -11 -270 -27 -39 -218 -256 -390 -444 -110 -120 -120 -125
-231 -116 -87 7 -88 7 -166 -30 -102 -50 -215 -158 -233 -225 -22 -81 20 -230
76 -266 19 -13 53 -19 120 -22 84 -4 420 10 604 24 l75 6 85 87 c47 47 177
192 288 321 111 129 220 249 241 265 50 38 128 132 180 217 101 166 302 593
316 673 4 17 -10 127 -29 245 -48 297 -65 434 -73 585 -6 143 -1 168 41 179
25 6 339 -86 720 -210 93 -31 221 -66 285 -79 140 -29 213 -54 300 -101 181
-99 297 -225 386 -417 54 -117 190 -511 229 -664 20 -78 43 -193 51 -256 19
-159 61 -239 189 -369 55 -56 73 -68 99 -68 39 0 114 48 191 123 70 69 86 119
86 273 l0 112 -71 189 c-258 684 -317 871 -374 1187 -14 77 -31 157 -37 176
-17 57 -86 217 -149 347 -57 116 -62 123 -113 152 -82 46 -166 120 -230 205
-32 42 -89 101 -127 132 -76 62 -124 127 -139 188 -15 60 -35 96 -100 177 -41
51 -60 85 -65 113 -25 158 -36 256 -50 436 -9 113 -20 219 -25 236 -7 19 -7
48 0 81 11 61 -4 133 -46 216 -48 94 -135 291 -161 362 -20 58 -26 99 -33 232
-5 88 -13 169 -18 180 -23 43 -33 131 -23 190 17 89 64 177 262 489 108 172
206 338 241 413 79 168 96 201 161 303 59 95 114 216 148 330 12 40 40 111 64
158 47 93 69 161 144 445 80 303 86 343 86 635 0 284 -10 370 -70 606 -61 238
-169 486 -299 684 -90 137 -116 164 -186 190 -43 16 -77 39 -119 80 -105 102
-355 253 -550 331 -93 37 -128 44 -191 38 -8 -1 -42 6 -75 15 -76 20 -176 19
-290 -4z"/>
</g>
</svg>
